<svg xmlns="http://www.w3.org/2000/svg" viewBox="0 0 100 100" width="512" height="512">
  <defs>
    <linearGradient id="bg" x1="0" y1="0" x2="0" y2="1">
      <stop offset="0%" stop-color="#0a2a20"/>
      <stop offset="55%" stop-color="#0f3a2a"/>
      <stop offset="100%" stop-color="#1a5440"/>
    </linearGradient>
    <radialGradient id="glow" cx="50%" cy="40%" r="50%">
      <stop offset="0%" stop-color="#2dd4bf" stop-opacity="0.45"/>
      <stop offset="100%" stop-color="#2dd4bf" stop-opacity="0"/>
    </radialGradient>
  </defs>
  <rect width="100" height="100" fill="url(#bg)"/>
  <rect width="100" height="100" fill="url(#glow)"/>
  <!-- Temple, sized within inner 80% (safe zone for maskable) -->
  <g fill="#2dd4bf">
    <!-- Pediment -->
    <polygon points="50,12 14,33 86,33"/>
    <!-- Entablature -->
    <rect x="13" y="33" width="74" height="7"/>
    <!-- Columns (4) -->
    <g>
      <rect x="16" y="42" width="11" height="3.5"/>
      <rect x="17.4" y="45.5" width="8.2" height="29"/>
      <rect x="16" y="74.5" width="11" height="3.5"/>
    </g>
    <g>
      <rect x="33" y="42" width="11" height="3.5"/>
      <rect x="34.4" y="45.5" width="8.2" height="29"/>
      <rect x="33" y="74.5" width="11" height="3.5"/>
    </g>
    <g>
      <rect x="56" y="42" width="11" height="3.5"/>
      <rect x="57.4" y="45.5" width="8.2" height="29"/>
      <rect x="56" y="74.5" width="11" height="3.5"/>
    </g>
    <g>
      <rect x="73" y="42" width="11" height="3.5"/>
      <rect x="74.4" y="45.5" width="8.2" height="29"/>
      <rect x="73" y="74.5" width="11" height="3.5"/>
    </g>
    <!-- Stylobate (two steps) -->
    <rect x="10" y="79" width="80" height="4.5"/>
    <rect x="14" y="84" width="72" height="4.5"/>
  </g>
</svg>
